<svg width="8" height="14" viewBox="0 0 8 14" fill="none" xmlns="http://www.w3.org/2000/svg">
<path d="M0.919997 13.0066C0.997406 13.0842 1.08937 13.1458 1.19061 13.1878C1.29185 13.2298 1.40039 13.2515 1.51 13.2515C1.61961 13.2515 1.72815 13.2298 1.82939 13.1878C1.93063 13.1458 2.02259 13.0842 2.1 13.0066L7.64 7.46664C7.7018 7.40497 7.75083 7.33171 7.78429 7.25106C7.81774 7.17041 7.83496 7.08395 7.83496 6.99664C7.83496 6.90933 7.81774 6.82288 7.78429 6.74223C7.75083 6.66158 7.7018 6.58832 7.64 6.52664L2.1 0.986641C1.77333 0.659975 1.24666 0.659975 0.919997 0.986641C0.59333 1.31331 0.59333 1.83998 0.919997 2.16664L5.74666 6.99998L0.913332 11.8333C0.593332 12.1533 0.59333 12.6866 0.919997 13.0066Z" fill="url(#paint0_linear_13_151)" stroke="url(#paint1_linear_13_151)" stroke-width="0.2"/>
<defs>
<linearGradient id="paint0_linear_13_151" x1="7.96476" y1="13.2515" x2="0.348463" y2="13.131" gradientUnits="userSpaceOnUse">
<stop stop-color="#0CAB65"/>
<stop offset="1" stop-color="#3BB78F"/>
</linearGradient>
<linearGradient id="paint1_linear_13_151" x1="7.96476" y1="13.2515" x2="0.348463" y2="13.131" gradientUnits="userSpaceOnUse">
<stop stop-color="#0CAB65"/>
<stop offset="1" stop-color="#3BB78F"/>
</linearGradient>
</defs>
</svg>
