<svg width="21" height="22" viewBox="0 0 21 22" fill="none" xmlns="http://www.w3.org/2000/svg">
<path d="M21 11.0412C21 10.339 20.9384 9.67233 20.8328 9.02344H10.891V13.0323H16.5834C16.3282 14.3479 15.5804 15.459 14.4718 16.2145V18.8812H17.8679C19.8563 17.0234 21 14.2857 21 11.0412Z" fill="#4285F4"/>
<path d="M10.891 21.469C13.7416 21.469 16.1259 20.509 17.8679 18.8823L14.4718 16.2157C13.5216 16.8557 12.3163 17.2468 10.891 17.2468C8.13723 17.2468 5.80574 15.3712 4.96992 12.8379H1.46829V15.5846C3.20151 19.069 6.76473 21.469 10.891 21.469Z" fill="#34A853"/>
<path d="M4.96993 12.8373C4.74997 12.1973 4.6356 11.5129 4.6356 10.8018C4.6356 10.0906 4.75877 9.4062 4.96993 8.7662V6.01953H1.46829C0.746853 7.45953 0.333344 9.07731 0.333344 10.8018C0.333344 12.5262 0.746853 14.144 1.46829 15.584L4.96993 12.8373Z" fill="#FBBC05"/>
<path d="M10.891 4.35699C12.4483 4.35699 13.8384 4.89921 14.9381 5.95699L17.9471 2.91699C16.1259 1.19254 13.7416 0.134766 10.891 0.134766C6.76473 0.134766 3.20151 2.53477 1.46829 6.01921L4.96992 8.76588C5.80574 6.23254 8.13723 4.35699 10.891 4.35699Z" fill="#EA4335"/>
</svg>
