<svg width="18" height="19" viewBox="0 0 18 19" fill="none" xmlns="http://www.w3.org/2000/svg">
<path d="M9.5207 4.09286H8.48256C8.3876 4.09286 8.3099 4.17 8.3099 4.26429V10.1636C8.3099 10.2193 8.3358 10.2707 8.38112 10.3029L11.9488 12.8893C12.0265 12.945 12.1344 12.93 12.1905 12.8529L12.8078 12.0171C12.866 11.9379 12.8488 11.8307 12.7711 11.7771L9.69336 9.56786V4.26429C9.69336 4.17 9.61566 4.09286 9.5207 4.09286ZM14.2646 5.70429L17.6488 6.525C17.7567 6.55072 17.8625 6.46929 17.8625 6.36L17.8798 2.89929C17.8798 2.75572 17.7136 2.67429 17.6013 2.76429L14.1999 5.40214C14.1742 5.42189 14.1546 5.44844 14.1434 5.47873C14.1322 5.50903 14.1299 5.54185 14.1366 5.57341C14.1434 5.60498 14.159 5.634 14.1816 5.65715C14.2043 5.68031 14.233 5.69664 14.2646 5.70429ZM17.8841 12.1564L16.6603 11.7386C16.6177 11.7241 16.571 11.7267 16.5302 11.7459C16.4895 11.7651 16.4579 11.7994 16.4423 11.8414C16.4013 11.9507 16.3582 12.0579 16.3128 12.165C15.9287 13.0671 15.3783 13.8793 14.6747 14.5757C13.9789 15.2687 13.1543 15.821 12.2466 16.2021C11.3063 16.5969 10.2955 16.7995 9.27465 16.7979C8.24299 16.7979 7.2437 16.5986 6.30269 16.2021C5.39499 15.821 4.5704 15.2687 3.87461 14.5757C3.17317 13.8793 2.6228 13.0671 2.23647 12.165C1.84111 11.2309 1.63854 10.2275 1.64078 9.21429C1.64078 8.19 1.8415 7.19572 2.24078 6.26143C2.62496 5.35929 3.17532 4.54714 3.87893 3.85072C4.57472 3.15776 5.39931 2.60541 6.307 2.22429C7.2437 1.82786 8.24515 1.62857 9.27681 1.62857C10.3085 1.62857 11.3078 1.82786 12.2488 2.22429C13.1565 2.60541 13.9811 3.15776 14.6769 3.85072C14.897 4.07143 15.1042 4.30072 15.2941 4.54286L16.5848 3.54C14.8862 1.38429 12.2423 -0.00214038 9.27249 2.48044e-06C4.10123 0.00214534 -0.0513196 4.17215 0.000479383 9.30857C0.0522783 14.355 4.1854 18.4286 9.27681 18.4286C13.2804 18.4286 16.6905 15.9086 17.9898 12.3793C18.0222 12.2893 17.9747 12.1886 17.8841 12.1564Z" fill="#191932"/>
</svg>
