<svg width="23" height="17" viewBox="0 0 23 17" fill="none" xmlns="http://www.w3.org/2000/svg">
<path d="M15.5882 12.6936C15.4746 12.822 15.3157 12.9016 15.1448 12.9156C14.9739 12.9297 14.8042 12.8771 14.6711 12.7689C14.5381 12.6607 14.452 12.5053 14.4308 12.3351C14.4097 12.165 14.4552 11.9932 14.5577 11.8558C15.5579 10.6261 16.0732 9.31637 16.0732 8.01311C16.0732 6.70986 15.5904 5.4434 14.5751 4.20076C14.4725 4.06333 14.427 3.89157 14.4482 3.72139C14.4693 3.55121 14.5554 3.39578 14.6885 3.2876C14.8215 3.17942 14.9912 3.12686 15.1621 3.14091C15.3331 3.15495 15.4919 3.23451 15.6055 3.36296C16.82 4.85239 17.4046 6.43275 17.4002 8.01311C17.4002 9.63027 16.7724 11.2236 15.5796 12.6936H15.5882Z" fill="#191932"/>
<path d="M18.8368 15.8198C18.7202 15.9516 18.5561 16.0316 18.3805 16.0424C18.2049 16.0532 18.0322 15.9937 17.9005 15.8772C17.7687 15.7606 17.6886 15.5965 17.6779 15.4209C17.6671 15.2453 17.7265 15.0726 17.8431 14.9409C19.8348 12.6894 20.8544 10.3383 20.8155 7.9916C20.7765 5.70766 19.733 3.3934 17.6071 1.1376C17.4871 1.00813 17.4235 0.836289 17.4302 0.659885C17.4369 0.483481 17.5134 0.316963 17.6428 0.196964C17.7723 0.076964 17.9442 0.0133123 18.1206 0.0200112C18.297 0.0267101 18.4635 0.103211 18.5835 0.232684C20.9454 2.73312 22.1057 5.34829 22.149 7.96779C22.1945 10.6566 21.0666 13.3107 18.8454 15.8176L18.8368 15.8198Z" fill="#191932"/>
<path d="M7.57847 11.8552C7.68957 11.9915 7.74195 12.1664 7.72409 12.3414C7.70622 12.5164 7.61958 12.6771 7.48322 12.7882C7.34685 12.8993 7.17194 12.9517 6.99696 12.9338C6.82197 12.916 6.66125 12.8293 6.55015 12.693C5.35514 11.223 4.73382 9.62968 4.72949 8.01251C4.72949 6.43215 5.30968 4.85179 6.52417 3.36236C6.57776 3.29054 6.64532 3.23031 6.72278 3.18527C6.80024 3.14023 6.88601 3.11132 6.97493 3.10028C7.06385 3.08924 7.15409 3.09629 7.24022 3.12101C7.32634 3.14574 7.40658 3.18762 7.4761 3.24415C7.54563 3.30067 7.60301 3.37067 7.64479 3.44994C7.68657 3.52921 7.71188 3.6161 7.71922 3.70541C7.72656 3.79471 7.71576 3.88457 7.68748 3.9696C7.6592 4.05462 7.61402 4.13305 7.55466 4.20017C6.54582 5.4428 6.06306 6.7374 6.06306 8.01251C6.06306 9.28762 6.58479 10.6234 7.57847 11.8552Z" fill="#191932"/>
<path d="M4.30065 14.9381C4.41749 15.0699 4.4772 15.2427 4.46664 15.4185C4.45609 15.5943 4.37613 15.7587 4.24436 15.8755C4.11259 15.9924 3.9398 16.0521 3.76401 16.0415C3.58821 16.031 3.42381 15.951 3.30697 15.8192C1.08364 13.3123 -0.0420944 10.656 0.00120316 7.96723C0.0466656 5.34773 1.20487 2.73256 3.56675 0.232123C3.62521 0.163911 3.6969 0.108259 3.77747 0.0685288C3.85804 0.0287987 3.94583 0.00581565 4.03554 0.000968266C4.12524 -0.00387911 4.215 0.00950981 4.29938 0.0403261C4.38377 0.0711423 4.46103 0.118746 4.5265 0.180261C4.59197 0.241777 4.64429 0.315926 4.68029 0.39823C4.7163 0.480533 4.73525 0.569283 4.73599 0.659115C4.73674 0.748947 4.71926 0.837998 4.68462 0.920887C4.64998 1.00378 4.5989 1.07878 4.53445 1.14137C2.40855 3.39068 1.36724 5.70493 1.32827 7.98888C1.30013 10.3356 2.3068 12.6867 4.30065 14.9381Z" fill="#191932"/>
<circle cx="11.3103" cy="8.01144" r="1.41379" fill="#191932"/>
</svg>
