<svg width="20" height="21" viewBox="0 0 20 21" fill="none" xmlns="http://www.w3.org/2000/svg">
<path d="M11.5238 3.79586C11.4729 2.40357 10.6098 1.26012 9.4817 1.15098C8.45649 1.05179 7.40052 1 6.32199 1C5.24345 1 4.18747 1.05179 3.16227 1.15098C2.03413 1.26013 1.1711 2.40357 1.12015 3.79586C1.04144 5.94619 1 8.17841 1 10.4678C1 12.7572 1.04144 14.9895 1.12015 17.1398C1.1711 18.5321 2.03413 19.6755 3.16227 19.7846C4.18747 19.8838 5.24345 19.9356 6.32199 19.9356C7.40052 19.9356 8.45649 19.8838 9.4817 19.7846C10.6098 19.6755 11.4729 18.5321 11.5238 17.1398" stroke="#FF0000" stroke-linecap="round"/>
<path d="M14.8994 14.9545C16.8077 13.3909 17.7613 12.4376 19.2489 10.6049C17.7613 8.77227 16.8077 7.81891 14.8994 6.25537" stroke="#FF0000" stroke-linecap="round" stroke-linejoin="round"/>
<path d="M5.77441 10.6055H19.2001" stroke="#FF0000" stroke-linecap="round" stroke-linejoin="round"/>
</svg>
