<svg width="21" height="24" viewBox="0 0 21 24" fill="none" xmlns="http://www.w3.org/2000/svg">
<path fill-rule="evenodd" clip-rule="evenodd" d="M0.826123 1.29048H2.07225C2.17031 1.29048 2.25079 1.37155 2.25079 1.47089V13.3575L2.21934 13.3889C1.65456 13.961 1.37795 14.6349 1.32198 15.3405C1.26463 16.065 1.4552 16.8002 1.80859 17.4665C1.91914 17.675 2.05051 17.8817 2.1976 18.0818L2.25079 18.153V23.2503H4.79531V19.9257C5.12742 20.01 5.46555 20.0451 5.80183 20.0222C6.00396 20.0086 6.20333 19.9749 6.3976 19.9196V23.2503H8.94211V17.8517L10.5444 16.228V23.2503H11.0967C11.1494 23.2503 11.1929 23.2938 11.1929 23.3473V23.9025C11.1929 23.9564 11.1494 24 11.0967 24H0.0962114C0.0430176 24 0 23.9564 0 23.9025V23.3473C0 23.2938 0.0430176 23.2503 0.0962114 23.2503H0.64804V1.47042C0.64804 1.37155 0.728062 1.29048 0.826123 1.29048ZM14.5099 4.74068C14.6796 5.58507 15.4965 6.37745 16.2981 6.55129C16.4096 6.76262 16.5877 6.97536 16.8213 7.212C16.8652 7.25604 16.8874 7.31602 16.8874 7.376C16.8874 7.43223 16.868 7.48799 16.8301 7.53157L6.48826 18.0077C5.98222 18.5199 5.2611 18.4576 4.60566 18.093C4.32905 17.9393 4.06401 17.7327 3.82996 17.4923C3.59544 17.2514 3.39145 16.9768 3.23789 16.6877C2.85304 15.9614 2.78921 15.1419 3.36971 14.5538L13.557 4.23367C13.601 4.18868 13.6602 4.16666 13.7189 4.16666C13.7781 4.16666 13.8369 4.18868 13.8808 4.23367C14.1038 4.45953 14.3078 4.63056 14.5099 4.74068ZM16.2694 12.7315C17.0822 12.7315 17.819 13.0656 18.3519 13.6058C18.8852 14.1452 19.2155 14.8916 19.2155 15.7159C19.2155 16.5397 18.8852 17.2861 18.3523 17.8259L18.3426 17.8348C17.8098 18.3695 17.0771 18.6998 16.2694 18.6998C15.9484 18.6998 15.6399 18.6478 15.3508 18.5518C15.3383 18.5489 15.3268 18.5447 15.3152 18.5396C14.8903 18.3919 14.5044 18.1476 14.187 17.8255C13.6537 17.2861 13.3234 16.5397 13.3234 15.7159C13.3234 14.8926 13.6532 14.1466 14.1866 13.6063L14.1875 13.6049C14.7208 13.0651 15.4572 12.7315 16.2694 12.7315ZM15.4503 13.1986C15.4475 13.2108 15.4438 13.223 15.4387 13.2343L15.3702 13.3875C15.3521 13.4278 15.319 13.4592 15.2781 13.4749C15.2372 13.4905 15.1918 13.4891 15.1519 13.4709C15.1301 13.461 15.1107 13.4464 15.095 13.4281C15.0793 13.4098 15.0678 13.3883 15.0613 13.365C14.8249 13.4899 14.6087 13.6506 14.4202 13.8415C13.9465 14.3214 13.6542 14.9835 13.6542 15.7159C13.6542 16.4473 13.947 17.1095 14.4202 17.5888C14.4405 17.6094 14.4609 17.6296 14.4817 17.6493C14.4942 17.6427 14.5071 17.6375 14.521 17.6343C14.6093 17.6122 14.6991 17.6671 14.7204 17.7566C14.7264 17.7795 14.7338 17.8039 14.7426 17.8278C14.7495 17.8461 14.7569 17.8648 14.7652 17.8836C14.8531 17.9459 14.9442 18.003 15.0391 18.0541C14.7513 17.3189 14.6672 16.3138 14.8119 15.3537C14.9396 14.5107 15.2444 13.6958 15.7444 13.1195C15.6441 13.1401 15.5456 13.1668 15.4503 13.1986ZM14.1644 16.795C14.1644 16.7027 14.2384 16.6277 14.3295 16.6277C14.4206 16.6277 14.4951 16.7027 14.4951 16.795C14.4951 16.8391 14.4988 16.8906 14.5048 16.9398C14.5113 16.9904 14.521 17.041 14.5316 17.0823C14.5548 17.1713 14.502 17.2631 14.4141 17.2861C14.3263 17.3095 14.2361 17.2566 14.2129 17.1676C14.1991 17.1137 14.187 17.0485 14.1782 16.9834C14.1694 16.9145 14.1644 16.847 14.1644 16.795ZM14.1061 15.7937C14.1139 15.7018 14.1944 15.6343 14.2846 15.6428C14.3753 15.6507 14.4419 15.7323 14.4336 15.8237C14.4322 15.8443 14.4336 15.8953 14.4373 15.9539C14.4414 16.0242 14.4488 16.1011 14.4558 16.1531C14.4586 16.1748 14.4572 16.1969 14.4517 16.2181C14.4461 16.2392 14.4365 16.2591 14.4233 16.2765C14.4102 16.2939 14.3938 16.3085 14.3751 16.3195C14.3563 16.3305 14.3357 16.3376 14.3142 16.3405C14.271 16.3464 14.2272 16.3346 14.1925 16.3078C14.1578 16.281 14.1351 16.2414 14.1292 16.1976C14.1209 16.1371 14.113 16.0514 14.1079 15.9745C14.1042 15.9028 14.1024 15.8349 14.1061 15.7937ZM14.2744 14.7393C14.299 14.6508 14.3901 14.5988 14.478 14.6236C14.5654 14.6484 14.6167 14.7408 14.5918 14.8298C14.5853 14.8542 14.5751 14.9019 14.5654 14.9554L14.5326 15.1498C14.5191 15.2412 14.4354 15.3045 14.3452 15.2913C14.255 15.2778 14.1926 15.1929 14.2055 15.1016L14.2411 14.893C14.2532 14.8303 14.2657 14.7717 14.2744 14.7393ZM14.6459 13.8012C14.664 13.7609 14.6971 13.7295 14.738 13.7139C14.779 13.6982 14.8243 13.6997 14.8642 13.7178C14.9041 13.7361 14.9351 13.7697 14.9505 13.8112C14.966 13.8526 14.9645 13.8986 14.9465 13.939L14.8212 14.2192C14.8031 14.2596 14.77 14.291 14.729 14.3066C14.6881 14.3222 14.6427 14.3208 14.6029 14.3026C14.5201 14.2647 14.4831 14.1658 14.5201 14.0819L14.6459 13.8012ZM15.8809 18.3362C15.8934 18.2673 15.948 18.2111 16.0197 18.2013C16.063 18.195 16.1071 18.2065 16.1421 18.2331C16.1771 18.2597 16.2003 18.2993 16.2065 18.3432L16.2107 18.3643L16.2694 18.3653C16.9878 18.3653 17.6386 18.0719 18.1109 17.5977L18.1187 17.5888C18.5919 17.1095 18.8847 16.4473 18.8847 15.7159C18.8847 14.9844 18.5919 14.3218 18.1187 13.842C17.7778 13.4958 17.3486 13.2523 16.8791 13.1387L16.8555 13.1799C16.8447 13.1989 16.8304 13.2156 16.8133 13.2289C16.7961 13.2423 16.7766 13.2521 16.7557 13.2578C16.7348 13.2635 16.713 13.265 16.6916 13.2622C16.6701 13.2593 16.6494 13.2522 16.6307 13.2413C16.6034 13.2254 16.5811 13.2019 16.5666 13.1736C16.5521 13.1452 16.5459 13.1133 16.5488 13.0815C16.4577 13.0717 16.3657 13.066 16.2718 13.066C15.6496 13.5754 15.2805 14.4671 15.139 15.4038C14.9789 16.4628 15.1094 17.5696 15.4933 18.2467C15.6186 18.2861 15.7481 18.3161 15.8809 18.3362ZM15.4655 17.5143C15.4521 17.4229 15.5141 17.3372 15.6043 17.3236C15.6476 17.3171 15.6918 17.3282 15.7271 17.3545C15.7623 17.3809 15.7859 17.4203 15.7926 17.4642C15.7976 17.4998 15.8078 17.5401 15.8203 17.5809C15.8356 17.6291 15.8536 17.676 15.8721 17.7167C15.91 17.8001 15.874 17.8995 15.7912 17.9384C15.7088 17.9768 15.6108 17.9403 15.5728 17.8564C15.5474 17.8011 15.5238 17.7402 15.5053 17.6816C15.4877 17.6254 15.4739 17.5677 15.4655 17.5143ZM15.3309 16.4544C15.3351 16.4104 15.3564 16.3698 15.39 16.3416C15.4237 16.3135 15.4669 16.2999 15.5104 16.304C15.6011 16.3124 15.6672 16.3944 15.6589 16.4858C15.6552 16.5265 15.6538 16.5785 15.6556 16.6315C15.657 16.6816 15.6617 16.7327 15.6686 16.7749C15.6834 16.8658 15.6228 16.952 15.5331 16.967C15.4433 16.9825 15.3582 16.9206 15.3434 16.8297C15.3342 16.7758 15.3286 16.7093 15.3263 16.6432C15.3244 16.5762 15.3258 16.5092 15.3309 16.4544ZM15.3679 15.4511C15.3846 15.3602 15.4711 15.3012 15.5608 15.3181C15.6501 15.3354 15.7088 15.423 15.6917 15.5139C15.6876 15.5364 15.6839 15.5866 15.682 15.6428C15.6797 15.7131 15.6797 15.7904 15.6815 15.8433C15.6848 15.9352 15.6135 16.013 15.5229 16.0158C15.5013 16.0166 15.4797 16.013 15.4595 16.0054C15.4393 15.9977 15.4207 15.9861 15.4049 15.9712C15.3891 15.9562 15.3763 15.9383 15.3674 15.9184C15.3584 15.8984 15.3534 15.8769 15.3527 15.8551C15.3504 15.7955 15.3504 15.7093 15.3531 15.6315C15.3554 15.558 15.3605 15.4891 15.3679 15.4511ZM15.6362 14.4184C15.6522 14.3771 15.6836 14.3439 15.7237 14.3261C15.7637 14.3082 15.8091 14.3072 15.8499 14.3232C15.9346 14.357 15.9767 14.454 15.9438 14.5397C15.9346 14.5636 15.9202 14.61 15.905 14.6616L15.8536 14.8527C15.8319 14.9422 15.7421 14.9966 15.6538 14.9746C15.6113 14.9638 15.5748 14.9364 15.5522 14.8983C15.5297 14.8603 15.523 14.8147 15.5335 14.7717L15.589 14.5674C15.6066 14.506 15.6242 14.4493 15.6362 14.4184ZM16.096 13.5215C16.1067 13.5025 16.1211 13.4858 16.1382 13.4724C16.1554 13.459 16.1749 13.4492 16.1958 13.4435C16.2167 13.4378 16.2385 13.4363 16.2599 13.4392C16.2814 13.442 16.3021 13.4492 16.3208 13.4601C16.3395 13.471 16.3559 13.4855 16.3691 13.5028C16.3823 13.5201 16.392 13.5399 16.3976 13.561C16.4032 13.5821 16.4047 13.6041 16.4019 13.6258C16.3991 13.6475 16.3922 13.6684 16.3814 13.6874L16.2297 13.9545C16.2079 13.9928 16.1719 14.0207 16.1298 14.0322C16.0877 14.0437 16.0427 14.0379 16.0049 14.0159C15.9861 14.0049 15.9697 13.9904 15.9565 13.9731C15.9433 13.9557 15.9336 13.9359 15.9279 13.9147C15.9223 13.8936 15.9209 13.8715 15.9237 13.8498C15.9265 13.828 15.9335 13.8071 15.9443 13.7881L16.096 13.5215ZM13.3771 9.18802C13.4224 9.14233 13.4838 9.11668 13.5478 9.11668C13.6117 9.11668 13.6731 9.14233 13.7185 9.18802C13.8128 9.28361 13.8128 9.43871 13.7185 9.53384L6.74822 16.5949C6.65385 16.6905 6.50075 16.6905 6.40685 16.5949C6.31249 16.4998 6.31249 16.3447 6.40685 16.2491L13.3771 9.18802ZM19.6822 0.0951228L20.9061 1.335C20.9661 1.39579 20.9999 1.47818 21 1.56414C21 1.63396 20.9773 1.70471 20.9311 1.76422L20.9066 1.79328L19.7257 2.98957C19.6959 3.0198 19.6606 3.04376 19.6217 3.06009C19.5828 3.07642 19.5411 3.08478 19.499 3.0847C19.4491 3.0847 19.3982 3.07205 19.3519 3.04768C19.141 3.25714 18.9009 3.48862 18.6562 3.72525C18.0253 4.33395 17.3583 4.97778 16.8763 5.56023C16.6811 5.79593 16.6168 5.98243 16.658 6.15721C16.7056 6.35917 16.8842 6.58456 17.1622 6.86618C17.3009 7.00769 17.3703 7.19232 17.3703 7.376C17.3703 7.55313 17.306 7.73072 17.1774 7.86942L6.82963 18.3535C6.14458 19.0471 5.20883 18.9852 4.37392 18.5208C4.05707 18.3446 3.7541 18.1085 3.48674 17.8344C3.22077 17.5607 2.98903 17.2482 2.81372 16.9187C2.33405 16.0139 2.2693 14.9769 3.02835 14.208L13.2157 3.88785C13.3544 3.74728 13.5371 3.67746 13.7189 3.67746C13.9012 3.67746 14.0839 3.74728 14.2222 3.88785C14.4937 4.16244 14.7157 4.33488 14.9169 4.38221C15.0932 4.42298 15.2777 4.36112 15.5025 4.17791C16.0682 3.71776 16.7385 3.00269 17.3551 2.34433C17.5794 2.10442 17.7977 1.87153 17.9915 1.67004C17.9675 1.62318 17.955 1.57164 17.955 1.52056C17.955 1.4498 17.9781 1.37905 18.0244 1.32L18.0484 1.29142L19.2298 0.0951228C19.2899 0.0345016 19.3712 0.000323876 19.456 0C19.5258 0 19.5957 0.0238978 19.6535 0.0702878L19.6822 0.0951228ZM2.48485 0.437659H4.47522C4.58808 0.437659 4.68059 0.531376 4.68059 0.64571V0.653208H5.37813C5.41282 0.653208 5.44289 0.682729 5.44289 0.719278V1.03276C5.44289 1.06884 5.41374 1.09836 5.37813 1.09836H4.68059V1.10633C4.68059 1.22066 4.58808 1.31438 4.47522 1.31438H2.48485C2.37198 1.31438 2.27947 1.22066 2.27947 1.10633V1.09836H1.54956C1.51394 1.09836 1.48434 1.06884 1.48434 1.03276V0.719278C1.48434 0.682729 1.51348 0.653208 1.54956 0.653208H2.27947V0.64571C2.27947 0.531376 2.37198 0.437659 2.48485 0.437659ZM5.73707 0.653208H6.43414V0.64571C6.43414 0.531376 6.52665 0.437659 6.63951 0.437659H8.62989C8.74322 0.437659 8.83526 0.531376 8.83526 0.64571V0.653208H9.56564C9.60033 0.653208 9.6304 0.682729 9.6304 0.719278V1.03276C9.6304 1.06884 9.60126 1.09836 9.56564 1.09836H8.83526V1.10633C8.83514 1.16147 8.81347 1.21432 8.77498 1.25331C8.73649 1.2923 8.68432 1.31426 8.62989 1.31438H6.63951C6.52665 1.31438 6.43414 1.22066 6.43414 1.10633V1.09836H5.73707C5.70145 1.09836 5.67185 1.06884 5.67185 1.03276V0.719278C5.67185 0.682729 5.70099 0.653208 5.73707 0.653208ZM9.1202 1.29048H10.3663C10.4644 1.29048 10.5444 1.37155 10.5444 1.47089V5.01011C10.4415 5.07797 10.3459 5.15649 10.259 5.24441L8.94211 6.57847V1.47042C8.94211 1.37155 9.02214 1.29048 9.1202 1.29048ZM4.97293 1.29048H6.21905C6.26633 1.29048 6.31167 1.30948 6.34514 1.34329C6.37861 1.37711 6.39748 1.423 6.3976 1.47089V9.15616L4.79531 10.7798V1.47042C4.79531 1.37155 4.87533 1.29048 4.97293 1.29048Z" fill="#858585"/>
</svg>
