<svg width="20" height="20" viewBox="0 0 20 20" fill="none" xmlns="http://www.w3.org/2000/svg">
<path d="M14.1073 15.3583H10.9735L7.48711 17.8249C6.97003 18.1916 6.27276 17.8 6.27276 17.1333V15.3583C3.92238 15.3583 2.35547 13.6916 2.35547 11.1916L2.35547 6.19157C2.35547 3.69157 3.92238 2.0249 6.27276 2.0249L14.1073 2.0249C16.4577 2.0249 18.0246 3.69157 18.0246 6.19157V11.1916C18.0246 13.6916 16.4577 15.3583 14.1073 15.3583Z" stroke="#858585" stroke-width="1.5" stroke-miterlimit="10" stroke-linecap="round" stroke-linejoin="round"/>
<path d="M10.1892 9.4668V9.29183C10.1892 8.72516 10.5183 8.42515 10.8473 8.18348C11.1685 7.95015 11.4897 7.65016 11.4897 7.10016C11.4897 6.33349 10.91 5.7168 10.1892 5.7168C9.46841 5.7168 8.88867 6.33349 8.88867 7.10016" stroke="#858585" stroke-width="1.5" stroke-linecap="round" stroke-linejoin="round"/>
<path d="M10.1861 11.4582H10.1931" stroke="#858585" stroke-width="1.5" stroke-linecap="round" stroke-linejoin="round"/>
</svg>
