<svg width="20" height="20" viewBox="0 0 20 20" fill="none" xmlns="http://www.w3.org/2000/svg">
<path d="M9.69137 2.4248C7.09813 2.4248 4.99062 4.66647 4.99062 7.4248V9.83314C4.99062 10.3415 4.78693 11.1165 4.54405 11.5498L3.64308 13.1415C3.08682 14.1248 3.47072 15.2165 4.48921 15.5831C7.86592 16.7831 11.509 16.7831 14.8857 15.5831C15.8337 15.2498 16.2489 14.0581 15.7318 13.1415L14.8309 11.5498C14.5958 11.1165 14.3921 10.3415 14.3921 9.83314V7.4248C14.3921 4.6748 12.2768 2.4248 9.69137 2.4248Z" stroke="#858585" stroke-width="1.5" stroke-miterlimit="10" stroke-linecap="round"/>
<path d="M11.141 2.66621C10.8981 2.59121 10.6474 2.53288 10.3889 2.49954C9.63674 2.39954 8.91596 2.45788 8.24219 2.66621C8.46939 2.04954 9.03348 1.61621 9.69159 1.61621C10.3497 1.61621 10.9138 2.04954 11.141 2.66621Z" stroke="#858585" stroke-width="1.5" stroke-miterlimit="10" stroke-linecap="round" stroke-linejoin="round"/>
<path d="M12.0421 15.8838C12.0421 17.2588 10.9844 18.3838 9.69168 18.3838C9.04925 18.3838 8.45382 18.1005 8.03075 17.6505C7.60768 17.2005 7.34131 16.5671 7.34131 15.8838" stroke="#858585" stroke-width="1.5" stroke-miterlimit="10"/>
</svg>
