<svg width="22" height="20" viewBox="0 0 22 20" fill="none" xmlns="http://www.w3.org/2000/svg">
<path d="M21.8003 7.26578H15.4074C15.2975 7.26578 15.2076 7.35568 15.2076 7.46556V8.66422C15.2076 8.7741 15.2975 8.864 15.4074 8.864H21.8003C21.9102 8.864 22.0001 8.7741 22.0001 8.66422V7.46556C22.0001 7.35568 21.9102 7.26578 21.8003 7.26578ZM18.454 10.662H15.4074C15.2975 10.662 15.2076 10.7519 15.2076 10.8618V12.0605C15.2076 12.1703 15.2975 12.2602 15.4074 12.2602H18.454C18.5639 12.2602 18.6538 12.1703 18.6538 12.0605V10.8618C18.6538 10.7519 18.5639 10.662 18.454 10.662ZM10.1208 5.03076H9.03946C8.88463 5.03076 8.75977 5.15562 8.75977 5.31045V11.5036C8.75977 11.5935 8.80222 11.6759 8.87464 11.7283L12.593 14.4403C12.7179 14.5302 12.8927 14.5052 12.9826 14.3804L13.6244 13.5038V13.5013C13.7143 13.3765 13.6868 13.2017 13.5619 13.1118L10.3979 10.8243V5.31045C10.4004 5.15562 10.2731 5.03076 10.1208 5.03076Z" fill="#191932"/>
<path d="M18.2997 13.8054H16.8563C16.7164 13.8054 16.5841 13.8778 16.5092 13.9977C16.192 14.4996 15.8224 14.9641 15.3979 15.3887C14.6662 16.1203 13.8147 16.6947 12.8682 17.0943C11.8868 17.5088 10.8455 17.7186 9.77166 17.7186C8.69535 17.7186 7.65401 17.5088 6.6751 17.0943C5.72865 16.6947 4.8771 16.1203 4.14541 15.3887C3.41372 14.657 2.83936 13.8054 2.43981 12.859C2.02527 11.8801 1.8155 10.8387 1.8155 9.76241C1.8155 8.68611 2.02527 7.64726 2.43981 6.66585C2.83936 5.71941 3.41372 4.86785 4.14541 4.13617C4.8771 3.40448 5.72865 2.83012 6.6751 2.43056C7.65401 2.01602 8.69785 1.80626 9.77166 1.80626C10.848 1.80626 11.8893 2.01602 12.8682 2.43056C13.8147 2.83012 14.6662 3.40448 15.3979 4.13617C15.8224 4.56069 16.192 5.02518 16.5092 5.52712C16.5841 5.64699 16.7164 5.71941 16.8563 5.71941H18.2997C18.472 5.71941 18.5819 5.53961 18.5045 5.38728C16.8763 2.14838 13.5749 0.0432145 9.88903 0.000761719C4.49252 -0.0666633 0.010006 4.35093 1.70606e-05 9.74244C-0.00997184 15.1439 4.36766 19.5266 9.76916 19.5266C13.5025 19.5266 16.8588 17.4139 18.5045 14.1376C18.5819 13.9852 18.4695 13.8054 18.2997 13.8054Z" fill="#191932"/>
</svg>
